<svg height="512pt" viewBox="0 0 512 512.001" width="512pt" xmlns="http://www.w3.org/2000/svg"><path d="m420.261719 347.6875c0 90.746094-73.566407 164.3125-164.316407 164.3125-90.746093 0-164.3125-73.566406-164.3125-164.3125 0-90.75 73.566407-164.316406 164.3125-164.316406 90.75 0 164.316407 73.566406 164.316407 164.316406zm0 0" fill="#ffd86e"/><path d="m420.257812 347.6875c0 90.746094-73.566406 164.3125-164.316406 164.3125-26.382812 0-51.304687-6.210938-73.390625-17.265625 13.371094 3.515625 27.402344 5.390625 41.878907 5.390625 90.746093 0 164.3125-73.566406 164.3125-164.316406 0-64.367188-37.015626-120.097656-90.921876-147.046875 70.464844 18.511719 122.4375 82.648437 122.4375 158.925781zm0 0" fill="#ffb509"/><path d="m511.890625 164.3125c0 90.75-73.566406 164.316406-164.3125 164.316406-90.75 0-164.316406-73.566406-164.316406-164.316406 0-90.746094 73.566406-164.3125 164.316406-164.3125 90.746094 0 164.3125 73.566406 164.3125 164.3125zm0 0" fill="#0396fd"/><path d="m511.886719 164.3125c0 90.75-73.5625 164.316406-164.3125 164.316406-26.382813 0-51.304688-6.210937-73.390625-17.265625 13.371094 3.511719 27.402344 5.386719 41.875 5.386719 90.75 0 164.316406-73.5625 164.316406-164.3125 0-64.367188-37.015625-120.097656-90.925781-147.046875 70.464843 18.507813 122.4375 82.648437 122.4375 158.921875zm0 0" fill="#0077f0"/><path d="m328.628906 164.3125c0 90.75-73.566406 164.316406-164.3125 164.316406-90.75 0-164.316406-73.566406-164.316406-164.316406 0-90.746094 73.566406-164.3125 164.316406-164.3125 90.746094 0 164.3125 73.566406 164.3125 164.3125zm0 0" fill="#ff5770"/><path d="m328.625 164.3125c0 90.75-73.566406 164.316406-164.3125 164.316406-26.382812 0-51.304688-6.210937-73.390625-17.265625 13.371094 3.511719 27.402344 5.386719 41.875 5.386719 90.75 0 164.316406-73.5625 164.316406-164.3125 0-64.367188-37.015625-120.097656-90.925781-147.046875 70.464844 18.507813 122.4375 82.648437 122.4375 158.921875zm0 0" fill="#ff435f"/></svg>