<?xml version="1.0" encoding="UTF-8" standalone="no"?>
<!DOCTYPE svg PUBLIC "-//W3C//DTD SVG 1.1//EN" "http://www.w3.org/Graphics/SVG/1.1/DTD/svg11.dtd">
<svg version="1.1" xmlns="http://www.w3.org/2000/svg" xmlns:xlink="http://www.w3.org/1999/xlink" preserveAspectRatio="xMidYMid meet" viewBox="0 0 640 640" width="640" height="640"><defs><path d="M315 245.14L245.14 315L-1.28 68.58L68.58 -1.28L315 245.14Z" id="gEPHUJIV"></path><path d="M638.12 568.3L568.28 638.15L325 394.85L394.84 325L638.12 568.3Z" id="b2LV6aP8tK"></path><path d="M569.17 1L639.03 70.86L394.85 315L325 245.13L569.17 1Z" id="hLB9b8vAH"></path><path d="M245.14 325L315 394.85L69.94 639.94L0.08 570.08L245.14 325Z" id="f1zWKVN0Ym"></path><path d="M314.75 244.5L244.63 314.62L314.75 314.62L314.75 244.5Z" id="a1FJygw8NX"></path><path d="M314.25 395.25L244.25 325.25L314.25 325.25L314.25 395.25Z" id="gfnMX3IY7"></path><path d="M325.08 395.42L395.25 325.25L325.08 325.25L325.08 395.42Z" id="h1qFLE3E2w"></path><path d="M325.58 244.75L395.58 314.75L325.58 314.75L325.58 244.75Z" id="au1HBLCLz"></path></defs><g><g><g><use xlink:href="#gEPHUJIV" opacity="1" fill="#ea4335" fill-opacity="1"></use></g><g><use xlink:href="#b2LV6aP8tK" opacity="1" fill="#fbbc05" fill-opacity="1"></use></g><g><use xlink:href="#hLB9b8vAH" opacity="1" fill="#34a853" fill-opacity="1"></use></g><g><use xlink:href="#f1zWKVN0Ym" opacity="1" fill="#4285f4" fill-opacity="1"></use></g><g><use xlink:href="#a1FJygw8NX" opacity="1" fill="#ea4335" fill-opacity="1"></use></g><g><use xlink:href="#gfnMX3IY7" opacity="1" fill="#4285f4" fill-opacity="1"></use></g><g><use xlink:href="#h1qFLE3E2w" opacity="1" fill="#fbbc05" fill-opacity="1"></use></g><g><use xlink:href="#au1HBLCLz" opacity="1" fill="#34a853" fill-opacity="1"></use></g></g></g></svg>