<?xml version="1.0" encoding="UTF-8" standalone="no"?>
<!DOCTYPE svg PUBLIC "-//W3C//DTD SVG 1.1//EN" "http://www.w3.org/Graphics/SVG/1.1/DTD/svg11.dtd">
<svg version="1.1" xmlns="http://www.w3.org/2000/svg" xmlns:xlink="http://www.w3.org/1999/xlink" preserveAspectRatio="xMidYMid meet" viewBox="0 0 800 634" width="800" height="634"><defs><path d="M650.69 555.92L800 555.9L799.96 0L650.64 0.02L650.69 555.92Z" id="b3BXNPqxeJ"></path><path d="M799.62 554.6L650 554.62L724.82 634L799.62 554.6Z" id="boKMKhU7x"></path><path d="M364.18 0L214.87 0L214.92 554.76L364.22 554.75L364.18 0Z" id="a6slsDIDAN"></path><path d="M214.39 554.01L364.39 554L289.4 634L214.39 554.01Z" id="d1PwAYkHtG"></path><path d="M434.42 0L583.91 0.1L583.58 555.54L434.09 555.43L434.42 0Z" id="aeCFau1XP"></path><path d="M434.3 554.33L584.09 554.42L509.15 634L434.3 554.33Z" id="fxU5y7wtR"></path><path d="M149.58 555.91L0.15 555.91L0.15 0.01L149.57 0L149.58 555.91Z" id="d359LrED8N"></path><path d="M150 554.9L0 554.9L75 634L150 554.9Z" id="b1Qn3kdgEF"></path></defs><g><g><g><g><use xlink:href="#b3BXNPqxeJ" opacity="1" fill="#4285f4" fill-opacity="1"></use></g><g><use xlink:href="#boKMKhU7x" opacity="1" fill="#4285f4" fill-opacity="1"></use></g></g><g><g><use xlink:href="#a6slsDIDAN" opacity="1" fill="#fbbc05" fill-opacity="1"></use></g><g><use xlink:href="#d1PwAYkHtG" opacity="1" fill="#fbbc05" fill-opacity="1"></use></g></g><g><g><use xlink:href="#aeCFau1XP" opacity="1" fill="#34a853" fill-opacity="1"></use></g><g><use xlink:href="#fxU5y7wtR" opacity="1" fill="#34a853" fill-opacity="1"></use></g></g><g><g><use xlink:href="#d359LrED8N" opacity="1" fill="#ea4335" fill-opacity="1"></use></g><g><use xlink:href="#b1Qn3kdgEF" opacity="1" fill="#ea4335" fill-opacity="1"></use></g></g></g></g></svg>